<svg width="24" height="24" viewBox="0 0 24 24" fill="none" xmlns="http://www.w3.org/2000/svg">
<g opacity="0.5">
<path d="M21.6 21.6V14.568C21.6 11.112 20.856 8.47198 16.824 8.47198C14.88 8.47198 13.584 9.52799 13.056 10.536H13.008V8.78398H9.19199V21.6H13.176V15.24C13.176 13.56 13.488 11.952 15.552 11.952C17.592 11.952 17.616 13.848 17.616 15.336V21.576H21.6V21.6Z" fill="white"/>
<path d="M2.71199 8.784H6.69599V21.6H2.71199V8.784Z" fill="white"/>
<path d="M4.70399 2.39999C3.43199 2.39999 2.39999 3.43199 2.39999 4.70399C2.39999 5.97599 3.43199 7.03199 4.70399 7.03199C5.97599 7.03199 7.00799 5.97599 7.00799 4.70399C7.00799 3.43199 5.97599 2.39999 4.70399 2.39999Z" fill="white"/>
</g>
</svg>
