<svg width="304" height="508" viewBox="0 0 304 508" fill="none" xmlns="http://www.w3.org/2000/svg">
<g clip-path="url(#clip0_412_349)">
<mask id="path-1-inside-1_412_349" fill="white">
<path fill-rule="evenodd" clip-rule="evenodd" d="M0 10C0 4.47715 4.47715 0 10 0H294C299.523 0 304 4.47716 304 10V355.55C304 360.306 300.438 364.202 296.542 366.93C291.377 370.546 288 376.541 288 383.324C288 390.108 291.377 396.103 296.542 399.719C300.438 402.447 304 406.342 304 411.098V498C304 503.523 299.523 508 294 508H10C4.47715 508 0 503.523 0 498V411.098C0 406.342 3.5619 402.447 7.45785 399.719C12.6227 396.103 16 390.108 16 383.324C16 376.541 12.6227 370.546 7.45785 366.93C3.5619 364.202 0 360.306 0 355.55V10Z"/>
</mask>
<path fill-rule="evenodd" clip-rule="evenodd" d="M0 10C0 4.47715 4.47715 0 10 0H294C299.523 0 304 4.47716 304 10V355.55C304 360.306 300.438 364.202 296.542 366.93C291.377 370.546 288 376.541 288 383.324C288 390.108 291.377 396.103 296.542 399.719C300.438 402.447 304 406.342 304 411.098V498C304 503.523 299.523 508 294 508H10C4.47715 508 0 503.523 0 498V411.098C0 406.342 3.5619 402.447 7.45785 399.719C12.6227 396.103 16 390.108 16 383.324C16 376.541 12.6227 370.546 7.45785 366.93C3.5619 364.202 0 360.306 0 355.55V10Z" fill="#DFF099"/>
<path d="M296.542 399.719L297.116 398.9L296.542 399.719ZM294 -1H10V1H294V-1ZM305 355.55V10H303V355.55H305ZM289 383.324C289 376.881 292.207 371.186 297.116 367.749L295.969 366.11C290.548 369.906 287 376.201 287 383.324H289ZM297.116 398.9C292.207 395.463 289 389.768 289 383.324H287C287 390.448 290.548 396.743 295.969 400.538L297.116 398.9ZM305 498V411.098H303V498H305ZM10 509H294V507H10V509ZM-1 411.098V498H1V411.098H-1ZM15 383.324C15 389.768 11.7934 395.463 6.8843 398.9L8.03141 400.538C13.4521 396.743 17 390.448 17 383.324H15ZM6.8843 367.749C11.7934 371.186 15 376.881 15 383.324H17C17 376.201 13.4521 369.906 8.03141 366.11L6.8843 367.749ZM-1 10V355.55H1V10H-1ZM8.03141 366.11C4.19999 363.428 1 359.793 1 355.55H-1C-1 360.819 2.9238 364.976 6.8843 367.749L8.03141 366.11ZM1 411.098C1 406.855 4.19999 403.221 8.03141 400.538L6.8843 398.9C2.9238 401.673 -1 405.829 -1 411.098H1ZM10 507C5.02944 507 1 502.971 1 498H-1C-1 504.075 3.92487 509 10 509V507ZM295.969 400.538C299.8 403.221 303 406.855 303 411.098H305C305 405.829 301.076 401.673 297.116 398.9L295.969 400.538ZM303 355.55C303 359.793 299.8 363.428 295.969 366.11L297.116 367.749C301.076 364.976 305 360.819 305 355.55H303ZM10 -1C3.92487 -1 -1 3.92487 -1 10H1C1 5.02944 5.02944 1 10 1V-1ZM303 498C303 502.971 298.971 507 294 507V509C300.075 509 305 504.075 305 498H303ZM294 1C298.971 1 303 5.02944 303 10H305C305 3.92487 300.075 -1 294 -1V1Z" fill="black" mask="url(#path-1-inside-1_412_349)"/>
<line x1="20" y1="386.166" x2="284" y2="386.166" stroke="#334E57" stroke-dasharray="4 4"/>
</g>
<defs>
<clipPath id="clip0_412_349">
<rect width="304" height="508" fill="white"/>
</clipPath>
</defs>
</svg>
