<svg width="14" height="14" viewBox="0 0 14 14" fill="none" xmlns="http://www.w3.org/2000/svg">
<path d="M12.4443 4.31607C12.4478 4.15514 12.4012 3.9971 12.3107 3.86392C12.2203 3.73075 12.0906 3.62906 11.9397 3.573C11.7888 3.51693 11.6242 3.50927 11.4687 3.55109C11.3133 3.59291 11.1748 3.68212 11.0724 3.80632L7.0125 8.54536L2.95405 3.80632C2.89091 3.7204 2.81074 3.64845 2.7185 3.59496C2.62625 3.54148 2.52393 3.50762 2.418 3.4955C2.31206 3.48338 2.20479 3.49326 2.10285 3.52453C2.00091 3.5558 1.90649 3.60778 1.82557 3.67721C1.74465 3.74665 1.67901 3.83204 1.63262 3.92805C1.58624 4.02406 1.56018 4.12861 1.55607 4.23516C1.55196 4.3417 1.56983 4.44795 1.60868 4.54725C1.64754 4.64654 1.70647 4.73675 1.7818 4.81221L6.42409 10.238C6.49681 10.3232 6.58706 10.3916 6.68877 10.4385C6.79049 10.4854 6.9012 10.5097 7.01321 10.5097C7.12523 10.5097 7.23594 10.4854 7.33765 10.4385C7.43937 10.3916 7.52971 10.3232 7.60242 10.238L12.2492 4.81221C12.3709 4.67515 12.4401 4.49935 12.4444 4.31607L12.4443 4.31607Z" fill="white"/>
</svg>
