    <svg width="330" height="175" viewBox="0 0 330 175" fill="none" xmlns="http://www.w3.org/2000/svg">
<path d="M2.00905 41V20.3186H14.6542V24.1594H6.79531V28.8571H14.6542V32.6093H6.79531V37.1592H14.6542V41H2.00905ZM23.2714 41L16.3284 20.3186H21.4692L25.7532 34.9138L30.0372 20.3186H35.178L28.2349 41H23.2714ZM37.0935 41V20.3186H49.7387V24.1594H41.8798V28.8571H49.7387V32.6093H41.8798V37.1592H49.7387V41H37.0935ZM69.7306 27.7935C69.7306 29.2904 69.3859 30.6298 68.6966 31.8116C68.0072 32.9737 67.0618 33.8502 65.8603 34.441L69.4943 41H64.058L60.8081 35.2683H58.2968V41H53.5105V20.3186H62.3149C64.4618 20.3186 66.2345 21.0277 67.633 22.4458C69.0314 23.8443 69.7306 25.6268 69.7306 27.7935ZM58.2968 24.2185V31.3684H61.5763C62.5414 31.3684 63.3293 31.0335 63.9399 30.3639C64.5701 29.6942 64.8853 28.8374 64.8853 27.7935C64.8853 26.7495 64.5701 25.8927 63.9399 25.2231C63.3293 24.5534 62.5414 24.2185 61.5763 24.2185H58.2968ZM83.2065 20.3186H88.4951L78.243 41H72.9249L76.7658 33.2002L69.4386 20.3186H74.9931L79.3953 28.473L83.2065 20.3186ZM94.7722 41V24.5731H89.0996V20.3186H105.231V24.5731H99.5289V41H94.7722ZM107.378 41V20.3186H112.164V28.6798H119.314V20.3186H124.1V41H119.314V32.7865H112.164V41H107.378ZM128.123 41V20.3186H132.909V41H128.123ZM136.923 41V20.3186H141.827L149.007 33.7024V20.3186H153.586V41H148.682L141.502 27.6162V41H136.923ZM179.739 30.1275V33.732H177.789C177.257 36.2334 176.085 38.1735 174.273 39.5523C172.481 40.9114 170.166 41.5909 167.33 41.5909C164.06 41.5909 161.411 40.5765 159.383 38.5478C157.374 36.4993 156.379 33.8994 156.399 30.7479C156.399 27.6162 157.393 24.9966 159.383 22.889C161.392 20.7815 164.129 19.7277 167.596 19.7277C170.334 19.7277 172.599 20.3876 174.391 21.7072C176.203 23.0269 177.198 24.7011 177.375 26.7298H172.146C171.949 25.8435 171.447 25.1246 170.639 24.5731C169.851 24.0216 168.847 23.7458 167.626 23.7458C165.597 23.7458 164.041 24.386 162.957 25.6662C161.894 26.9465 161.372 28.6109 161.392 30.6593C161.372 32.629 161.914 34.2539 163.017 35.5342C164.139 36.7948 165.617 37.4251 167.448 37.4251C170.344 37.4251 172.146 36.194 172.855 33.732H169.162V30.1275H179.739ZM200.751 20.3186H206.04L195.788 41H190.469L194.31 33.2002L186.983 20.3186H192.538L196.94 28.473L200.751 20.3186ZM224.245 38.4296C222.236 40.5371 219.557 41.5909 216.209 41.5909C212.86 41.5909 210.182 40.5371 208.173 38.4296C206.164 36.3024 205.159 33.7123 205.159 30.6593C205.159 27.6063 206.164 25.0261 208.173 22.9186C210.182 20.7913 212.86 19.7277 216.209 19.7277C219.557 19.7277 222.236 20.7913 224.245 22.9186C226.254 25.0261 227.259 27.6063 227.259 30.6593C227.259 33.7123 226.254 36.3024 224.245 38.4296ZM216.209 37.3069C218.1 37.3069 219.577 36.6766 220.641 35.416C221.724 34.1358 222.265 32.5502 222.265 30.6593C222.265 28.7684 221.724 27.1927 220.641 25.9321C219.577 24.6519 218.1 24.0117 216.209 24.0117C214.298 24.0117 212.801 24.6519 211.718 25.9321C210.654 27.1927 210.132 28.7684 210.152 30.6593C210.132 32.5502 210.654 34.1358 211.718 35.416C212.801 36.6766 214.298 37.3069 216.209 37.3069ZM244.004 39.5523C242.507 40.872 240.468 41.5318 237.888 41.5318C235.308 41.5318 233.269 40.872 231.772 39.5523C230.295 38.2326 229.557 36.3812 229.557 33.9979V20.3186H234.313V33.7024C234.313 34.8645 234.628 35.7706 235.259 36.4206C235.909 37.0705 236.785 37.3955 237.888 37.3955C238.991 37.3955 239.858 37.0705 240.488 36.4206C241.138 35.7706 241.463 34.8645 241.463 33.7024V20.3186H246.249V33.9979C246.249 36.3812 245.501 38.2326 244.004 39.5523ZM256.977 41V20.3186H261.882L269.061 33.7024V20.3186H273.641V41H268.736L261.557 27.6162V41H256.977ZM277.665 41V20.3186H290.31V24.1594H282.451V28.8571H290.31V32.6093H282.451V37.1592H290.31V41H277.665ZM294.082 41V20.3186H306.727V24.1594H298.868V28.8571H306.727V32.6093H298.868V37.1592H306.727V41H294.082ZM310.499 41V20.3186H318.298C321.509 20.3186 324.07 21.3133 325.98 23.3026C327.891 25.292 328.846 27.7442 328.846 30.6593C328.846 33.5744 327.891 36.0266 325.98 38.016C324.089 40.0053 321.529 41 318.298 41H310.499ZM315.285 36.9819H317.855C319.786 36.9819 321.273 36.3713 322.317 35.1501C323.38 33.9092 323.912 32.4123 323.912 30.6593C323.912 28.9063 323.38 27.4192 322.317 26.198C321.273 24.9572 319.786 24.3367 317.855 24.3367H315.285V36.9819Z" fill="white"/>
<path d="M8.7305 96.6484V72.0081H0.221586V65.6264H24.4188V72.0081H15.8656V96.6484H8.7305ZM53.0228 92.7928C50.0092 95.9541 45.9911 97.5348 40.9685 97.5348C35.9459 97.5348 31.9278 95.9541 28.9142 92.7928C25.9007 89.602 24.3939 85.7169 24.3939 81.1374C24.3939 76.558 25.9007 72.6876 28.9142 69.5263C31.9278 66.3354 35.9459 64.74 40.9685 64.74C45.9911 64.74 50.0092 66.3354 53.0228 69.5263C56.0364 72.6876 57.5432 76.558 57.5432 81.1374C57.5432 85.7169 56.0364 89.602 53.0228 92.7928ZM40.9685 91.1088C43.8048 91.1088 46.0207 90.1633 47.6161 88.2725C49.2411 86.3521 50.0535 83.9737 50.0535 81.1374C50.0535 78.3011 49.2411 75.9375 47.6161 74.0466C46.0207 72.1262 43.8048 71.166 40.9685 71.166C38.1027 71.166 35.8573 72.1262 34.2323 74.0466C32.6369 75.9375 31.8539 78.3011 31.8835 81.1374C31.8539 83.9737 32.6369 86.3521 34.2323 88.2725C35.8573 90.1633 38.1027 91.1088 40.9685 91.1088ZM89.2719 80.7829C91.1332 80.9601 92.6548 81.6988 93.8366 82.9987C95.0479 84.2692 95.6536 85.9532 95.6536 88.0509C95.6536 90.7099 94.7672 92.8076 92.9945 94.3439C91.2218 95.8803 88.7992 96.6484 85.7265 96.6484H72.4756V65.6264H85.239C88.3117 65.6264 90.7343 66.3502 92.507 67.7979C94.3093 69.2161 95.2104 71.1808 95.2104 73.6921C95.2104 75.6716 94.6786 77.267 93.615 78.4784C92.5514 79.6602 91.1037 80.4283 89.2719 80.7829ZM83.6436 70.8115H79.655V78.3454H83.6436C85.0027 78.3454 86.0663 78.0204 86.8344 77.3704C87.6321 76.6909 88.031 75.7602 88.031 74.5785C88.031 73.3967 87.6469 72.4808 86.8787 71.8308C86.1106 71.1513 85.0322 70.8115 83.6436 70.8115ZM84.1311 91.1974C85.4606 91.1974 86.5094 90.8429 87.2776 90.1338C88.0458 89.3952 88.4299 88.3907 88.4299 87.1202C88.4299 85.968 88.031 85.0521 87.2333 84.3726C86.4651 83.6635 85.4311 83.3089 84.1311 83.3089H79.655V91.1974H84.1311ZM121.049 94.4769C118.804 96.4564 115.746 97.4461 111.876 97.4461C108.005 97.4461 104.947 96.4564 102.702 94.4769C100.486 92.4974 99.3783 89.7202 99.3783 86.1453V65.6264H106.513V85.7021C106.513 87.4452 106.986 88.8043 107.932 89.7793C108.906 90.7542 110.221 91.2417 111.876 91.2417C113.53 91.2417 114.83 90.7542 115.776 89.7793C116.751 88.8043 117.238 87.4452 117.238 85.7021V65.6264H124.418V86.1453C124.418 89.7202 123.295 92.4974 121.049 94.4769ZM129.733 96.6484V65.6264H136.913V96.6484H129.733ZM142.933 96.6484V65.6264H150.113V90.2668H161.635V96.6484H142.933ZM166.347 96.6484V65.6264H178.047C182.862 65.6264 186.703 67.1184 189.569 70.1024C192.435 73.0864 193.868 76.7648 193.868 81.1374C193.868 85.51 192.435 89.1884 189.569 92.1724C186.733 95.1564 182.892 96.6484 178.047 96.6484H166.347ZM173.526 90.6213H177.382C180.277 90.6213 182.508 89.7054 184.074 87.8736C185.669 86.0123 186.467 83.7669 186.467 81.1374C186.467 78.5079 185.669 76.2773 184.074 74.4455C182.508 72.5842 180.277 71.6535 177.382 71.6535H173.526V90.6213ZM225.779 65.6264H233.711L218.333 96.6484H210.356L216.117 84.9487L205.127 65.6264H213.458L220.062 77.8579L225.779 65.6264ZM261.02 92.7928C258.006 95.9541 253.988 97.5348 248.965 97.5348C243.943 97.5348 239.924 95.9541 236.911 92.7928C233.897 89.602 232.391 85.7169 232.391 81.1374C232.391 76.558 233.897 72.6876 236.911 69.5263C239.924 66.3354 243.943 64.74 248.965 64.74C253.988 64.74 258.006 66.3354 261.02 69.5263C264.033 72.6876 265.54 76.558 265.54 81.1374C265.54 85.7169 264.033 89.602 261.02 92.7928ZM248.965 91.1088C251.802 91.1088 254.017 90.1633 255.613 88.2725C257.238 86.3521 258.05 83.9737 258.05 81.1374C258.05 78.3011 257.238 75.9375 255.613 74.0466C254.017 72.1262 251.802 71.166 248.965 71.166C246.099 71.166 243.854 72.1262 242.229 74.0466C240.634 75.9375 239.851 78.3011 239.88 81.1374C239.851 83.9737 240.634 86.3521 242.229 88.2725C243.854 90.1633 246.099 91.1088 248.965 91.1088ZM290.658 94.4769C288.413 96.4564 285.355 97.4461 281.484 97.4461C277.614 97.4461 274.556 96.4564 272.311 94.4769C270.095 92.4974 268.987 89.7202 268.987 86.1453V65.6264H276.122V85.7021C276.122 87.4452 276.595 88.8043 277.54 89.7793C278.515 90.7542 279.83 91.2417 281.484 91.2417C283.139 91.2417 284.439 90.7542 285.384 89.7793C286.359 88.8043 286.847 87.4452 286.847 85.7021V65.6264H294.026V86.1453C294.026 89.7202 292.903 92.4974 290.658 94.4769ZM323.672 76.8386C323.672 79.084 323.155 81.0931 322.121 82.8658C321.087 84.6089 319.669 85.9237 317.866 86.81L323.317 96.6484H315.163L310.288 88.0509H306.521V96.6484H299.342V65.6264H312.548C315.769 65.6264 318.428 66.69 320.525 68.8172C322.623 70.9149 323.672 73.5887 323.672 76.8386ZM306.521 71.4762V82.201H311.44C312.888 82.201 314.07 81.6988 314.986 80.6942C315.931 79.6897 316.404 78.4045 316.404 76.8386C316.404 75.2728 315.931 73.9876 314.986 72.983C314.07 71.9785 312.888 71.4762 311.44 71.4762H306.521Z" fill="white"/>
<path d="M147.014 136.03C148.831 136.203 150.316 136.924 151.47 138.193C152.652 139.433 153.244 141.077 153.244 143.125C153.244 145.72 152.378 147.768 150.648 149.268C148.917 150.768 146.552 151.518 143.553 151.518H130.618V121.234H143.077C146.077 121.234 148.442 121.941 150.172 123.354C151.931 124.738 152.811 126.656 152.811 129.108C152.811 131.04 152.292 132.598 151.254 133.78C150.215 134.934 148.802 135.684 147.014 136.03ZM141.52 126.296H137.626V133.65H141.52C142.846 133.65 143.885 133.333 144.635 132.699C145.413 132.035 145.803 131.127 145.803 129.973C145.803 128.819 145.428 127.925 144.678 127.291C143.928 126.627 142.875 126.296 141.52 126.296ZM141.996 146.196C143.293 146.196 144.317 145.85 145.067 145.158C145.817 144.437 146.192 143.456 146.192 142.216C146.192 141.091 145.803 140.197 145.024 139.534C144.274 138.842 143.265 138.496 141.996 138.496H137.626V146.196H141.996ZM178.035 149.398C175.843 151.33 172.858 152.296 169.08 152.296C165.301 152.296 162.316 151.33 160.124 149.398C157.961 147.465 156.88 144.754 156.88 141.264V121.234H163.845V140.832C163.845 142.533 164.306 143.86 165.229 144.812C166.181 145.764 167.464 146.24 169.08 146.24C170.695 146.24 171.964 145.764 172.887 144.812C173.838 143.86 174.314 142.533 174.314 140.832V121.234H181.323V141.264C181.323 144.754 180.227 147.465 178.035 149.398ZM196.462 152.383C192.742 152.383 189.829 151.445 187.723 149.571C185.618 147.667 184.565 145.014 184.565 141.611H191.574C191.574 143.255 192.006 144.538 192.871 145.461C193.765 146.384 194.977 146.845 196.505 146.845C197.803 146.845 198.798 146.557 199.49 145.98C200.212 145.403 200.572 144.581 200.572 143.514C200.572 142.591 200.298 141.856 199.75 141.308C199.231 140.731 198.279 140.168 196.895 139.621L191.444 137.501C187.348 135.972 185.301 133.218 185.301 129.238C185.301 126.555 186.267 124.407 188.199 122.792C190.16 121.176 192.785 120.369 196.073 120.369C199.418 120.369 202.101 121.249 204.12 123.008C206.138 124.738 207.148 127.06 207.148 129.973H200.139C200.139 128.56 199.779 127.478 199.058 126.728C198.337 125.979 197.299 125.604 195.943 125.604C194.818 125.604 193.924 125.878 193.261 126.426C192.626 126.945 192.309 127.666 192.309 128.589C192.309 129.425 192.626 130.146 193.261 130.752C193.895 131.329 194.962 131.92 196.462 132.526L201.481 134.516C205.547 136.102 207.58 138.943 207.58 143.038C207.58 145.865 206.557 148.129 204.509 149.83C202.49 151.532 199.808 152.383 196.462 152.383ZM211.649 151.518V121.234H218.658V151.518H211.649ZM224.535 151.518V121.234H231.717L242.229 140.832V121.234H248.935V151.518H241.753L231.241 131.92V151.518H224.535ZM254.827 151.518V121.234H273.343V126.858H261.835V133.737H273.343V139.231H261.835V145.894H273.343V151.518H254.827ZM288.183 152.383C284.462 152.383 281.549 151.445 279.444 149.571C277.338 147.667 276.286 145.014 276.286 141.611H283.294C283.294 143.255 283.727 144.538 284.592 145.461C285.486 146.384 286.697 146.845 288.226 146.845C289.524 146.845 290.519 146.557 291.211 145.98C291.932 145.403 292.293 144.581 292.293 143.514C292.293 142.591 292.019 141.856 291.471 141.308C290.952 140.731 290 140.168 288.615 139.621L283.164 137.501C279.069 135.972 277.021 133.218 277.021 129.238C277.021 126.555 277.987 124.407 279.92 122.792C281.881 121.176 284.506 120.369 287.793 120.369C291.139 120.369 293.821 121.249 295.84 123.008C297.859 124.738 298.869 127.06 298.869 129.973H291.86C291.86 128.56 291.5 127.478 290.778 126.728C290.057 125.979 289.019 125.604 287.664 125.604C286.539 125.604 285.645 125.878 284.981 126.426C284.347 126.945 284.03 127.666 284.03 128.589C284.03 129.425 284.347 130.146 284.981 130.752C285.616 131.329 286.683 131.92 288.183 132.526L293.201 134.516C297.268 136.102 299.301 138.943 299.301 143.038C299.301 145.865 298.277 148.129 296.23 149.83C294.211 151.532 291.528 152.383 288.183 152.383ZM313.32 152.383C309.6 152.383 306.687 151.445 304.581 149.571C302.476 147.667 301.423 145.014 301.423 141.611H308.432C308.432 143.255 308.864 144.538 309.73 145.461C310.624 146.384 311.835 146.845 313.364 146.845C314.662 146.845 315.657 146.557 316.349 145.98C317.07 145.403 317.43 144.581 317.43 143.514C317.43 142.591 317.156 141.856 316.608 141.308C316.089 140.731 315.137 140.168 313.753 139.621L308.302 137.501C304.207 135.972 302.159 133.218 302.159 129.238C302.159 126.555 303.125 124.407 305.057 122.792C307.019 121.176 309.643 120.369 312.931 120.369C316.277 120.369 318.959 121.249 320.978 123.008C322.997 124.738 324.006 127.06 324.006 129.973H316.998C316.998 128.56 316.637 127.478 315.916 126.728C315.195 125.979 314.157 125.604 312.801 125.604C311.676 125.604 310.782 125.878 310.119 126.426C309.485 126.945 309.167 127.666 309.167 128.589C309.167 129.425 309.485 130.146 310.119 130.752C310.754 131.329 311.821 131.92 313.32 132.526L318.339 134.516C322.405 136.102 324.439 138.943 324.439 143.038C324.439 145.865 323.415 148.129 321.367 149.83C319.348 151.532 316.666 152.383 313.32 152.383Z" fill="#8a2be2"/>
<path d="M19.2475 124.694C22.3374 124.694 24.8522 127.114 24.8522 130.088V137.937C24.8522 140.911 22.3374 143.332 19.2475 143.332H13.4628C10.373 143.332 7.85815 140.911 7.85815 137.937V130.088C7.85815 127.114 10.373 124.694 13.4628 124.694H19.2475ZM19.2475 117.124H13.4628C6.02864 117.124 0 122.927 0 130.083V137.931C0 145.087 6.02864 150.89 13.4628 150.89H19.2475C26.6817 150.89 32.7103 145.087 32.7103 137.931V130.083C32.7103 122.927 26.6817 117.124 19.2475 117.124Z" fill="#8a2be2"/>
<path d="M78.0829 117.125V138.019C78.0829 140.241 77.7958 142.157 77.2158 143.773C76.6359 145.389 75.8148 146.698 74.8042 147.761C73.7878 148.824 72.582 149.575 71.1867 150.085C69.7857 150.59 68.2927 150.842 66.6964 150.842C64.7671 150.842 63.079 150.488 61.632 149.731C60.185 148.974 58.9792 147.863 58.0605 146.398H57.9628C56.0794 149.377 53.1854 150.89 49.2751 150.89C47.6846 150.89 46.1859 150.638 44.8366 150.133C43.4872 149.629 42.2814 148.872 41.265 147.815C40.2487 146.752 39.4333 145.443 38.8534 143.827C38.2734 142.211 37.9863 140.296 37.9863 138.073V117.179H45.8012V138.073C45.8012 139.989 46.1859 141.353 46.9554 142.109C47.7248 142.866 48.7411 143.268 49.947 143.268C51.1528 143.268 52.0715 142.866 52.8926 142.109C53.7137 141.353 54.0984 139.989 54.0984 138.073V117.179H61.9133V138.073C61.9133 139.989 62.2981 141.353 63.1192 142.109C63.9403 142.866 64.9049 143.268 66.0591 143.268C67.2132 143.268 68.2296 142.866 69.0047 142.109C69.7742 141.353 70.1589 139.989 70.1589 138.073V117.179L78.0714 117.131L78.0829 117.125Z" fill="#8a2be2"/>
<path d="M103.164 130.611C103.164 128.65 102.693 127.127 101.797 126.048C100.9 124.968 99.4871 124.431 97.6037 124.431C95.7203 124.431 94.3077 124.968 93.4108 126.048C92.514 127.127 92.0431 128.645 92.0431 130.611V149.835H84.4141V130.611C84.4141 128.551 84.6999 126.684 85.2605 125.021C85.8266 123.351 86.6731 121.933 87.8054 120.754C88.9377 119.576 90.2998 118.694 91.9478 118.058C93.5958 117.422 95.4792 117.125 97.6037 117.125C99.7282 117.125 101.606 117.416 103.254 118.058C104.902 118.694 106.27 119.576 107.402 120.754C108.529 121.933 109.381 123.351 109.947 125.021C110.513 126.69 110.793 128.551 110.793 130.611V149.835H103.164V130.611Z" fill="#8a2be2"/>
<path d="M0 159.331H110.793V162.693L0 174.103V159.331Z" fill="#8a2be2"/>
</svg>