<svg width="105" height="46" viewBox="0 0 105 46" fill="none" xmlns="http://www.w3.org/2000/svg">
<path d="M5.31224 20.4211C6.16531 20.4211 6.85829 21.1077 6.85829 21.9509V24.1772C6.85829 25.0213 6.16431 25.707 5.31224 25.707H3.71549C2.86243 25.707 2.16944 25.0203 2.16944 24.1772V21.9509C2.16944 21.1068 2.86342 20.4211 3.71549 20.4211H5.31224ZM5.31224 18.2744H3.71549C1.66337 18.2744 0 19.9203 0 21.9509V24.1772C0 26.2077 1.66337 27.8536 3.71549 27.8536H5.31224C7.36436 27.8536 9.02773 26.2077 9.02773 24.1772V21.9509C9.02773 19.9203 7.36436 18.2744 5.31224 18.2744Z" fill="#00222D"/>
<path d="M21.4449 18.6064V24.1226C21.4449 24.7089 21.3644 25.2156 21.2023 25.6425C21.0402 26.0685 20.8116 26.4148 20.5292 26.6952C20.2458 26.9756 19.9098 27.1743 19.519 27.3081C19.1283 27.4409 18.7107 27.5078 18.2663 27.5078C17.7274 27.5078 17.2561 27.4143 16.8525 27.2146C16.4488 27.0149 16.1118 26.7218 15.8562 26.3351H15.8294C15.3044 27.1212 14.4961 27.5206 13.4044 27.5206C12.96 27.5206 12.5424 27.4537 12.1656 27.3209C11.7888 27.1881 11.4517 26.9874 11.1684 26.708C10.885 26.4276 10.6563 26.0813 10.4953 25.6553C10.3332 25.2293 10.2527 24.7227 10.2527 24.1363V18.6192H12.4341V24.1363C12.4341 24.643 12.5414 25.0031 12.7572 25.2028C12.9729 25.4025 13.2553 25.5097 13.5924 25.5097C13.9294 25.5097 14.1849 25.4025 14.4146 25.2028C14.6433 25.0031 14.7516 24.643 14.7516 24.1363V18.6192H16.933V24.1363C16.933 24.643 17.0404 25.0031 17.2701 25.2028C17.4987 25.4025 17.7682 25.5097 18.0913 25.5097C18.4144 25.5097 18.6968 25.4025 18.9135 25.2028C19.1283 25.0031 19.2367 24.643 19.2367 24.1363V18.6192L21.4449 18.6064Z" fill="#00222D"/>
<path d="M28.1859 22.1119C28.1859 21.5787 28.0517 21.1655 27.7951 20.8723C27.5386 20.5791 27.135 20.4326 26.5971 20.4326C26.0592 20.4326 25.6545 20.5791 25.399 20.8723C25.1425 21.1655 25.0083 21.5787 25.0083 22.1119V27.3349H22.8269V22.1119C22.8269 21.5521 22.9084 21.0455 23.0695 20.5919C23.2316 20.1394 23.4732 19.7528 23.7973 19.433C24.1214 19.1133 24.5112 18.8732 24.9824 18.7011C25.4537 18.5279 25.9926 18.4473 26.5991 18.4473C27.2056 18.4473 27.7434 18.527 28.2147 18.7011C28.686 18.8742 29.0767 19.1143 29.3999 19.433C29.723 19.7528 29.9656 20.1394 30.1266 20.5919C30.2877 21.0445 30.3692 21.5521 30.3692 22.1119V27.3349H28.1879V22.1119H28.1859Z" fill="#00222D"/>
<path d="M33.8439 18.6201H38.1459V20.6192H34.1928C33.989 20.6192 33.823 20.7825 33.823 20.9852V22.0457H37.3645V23.7781H33.823V24.9715C33.823 25.1732 33.988 25.3375 34.1928 25.3375H38.1459V27.3365H33.8439C32.6279 27.3365 31.6416 26.3606 31.6416 25.1574V20.8002C31.6416 19.597 32.6279 18.6211 33.8439 18.6211V18.6201Z" fill="#00222D"/>
<path d="M42.5268 24.5772H41.5971V27.3092H39.4158V18.5938H42.9841C43.5628 18.5938 44.0619 18.6734 44.4795 18.821C44.897 18.9676 45.247 19.1811 45.5304 19.4467C45.8127 19.7133 46.0146 20.033 46.1498 20.3931C46.285 20.7532 46.3516 21.1526 46.3516 21.5924C46.3516 22.2053 46.2164 22.7513 45.948 23.2314C45.6785 23.7105 45.2609 24.0705 44.6952 24.2978V24.3243L46.6618 27.3357H44.0758L42.5268 24.5772ZM43.011 22.5653C43.4554 22.5653 43.7517 22.4719 43.9137 22.2849C44.0758 22.098 44.1563 21.859 44.1563 21.5786C44.1563 21.2982 44.0758 21.0591 43.9137 20.8722C43.7517 20.6853 43.4564 20.5918 43.011 20.5918H41.5971V22.5771H43.011V22.5643V22.5653Z" fill="#00222D"/>
<path d="M66.2813 26.0822H70.6123V27.3346H66.1531C65.0385 27.3346 64.1348 26.4403 64.1348 25.3375V20.6162C64.1348 19.5134 65.0385 18.6191 66.1531 18.6191H70.6123V19.8715H66.2813C65.8548 19.8715 65.5088 20.2139 65.5088 20.6359V22.27H69.8318V23.5224H65.5088V25.3158C65.5088 25.7379 65.8548 26.0802 66.2813 26.0802V26.0822Z" fill="#00222D"/>
<path d="M83.1375 26.0822H87.4685V27.3346H83.0093C81.8947 27.3346 80.991 26.4403 80.991 25.3375V20.6162C80.991 19.5134 81.8947 18.6191 83.0093 18.6191H87.4685V19.8715H83.1375C82.711 19.8715 82.365 20.2139 82.365 20.6359V22.27H86.688V23.5224H82.365V25.3158C82.365 25.7379 82.711 26.0802 83.1375 26.0802V26.0822Z" fill="#00222D"/>
<path d="M78.0243 22.045C78.0243 21.3121 77.8225 20.7395 77.4317 20.3253C77.041 19.9121 76.4484 19.6996 75.667 19.6996C74.8855 19.6996 74.3208 19.9131 73.929 20.3253C73.5383 20.7385 73.3364 21.3121 73.3364 22.045V27.3211H71.9624V22.045C71.9624 21.499 72.0439 21.0051 72.205 20.5654C72.3671 20.1256 72.6087 19.7528 72.9328 19.433C73.2559 19.1133 73.6467 18.8732 74.104 18.7011C74.5614 18.5279 75.0873 18.4473 75.6799 18.4473C76.2725 18.4473 76.8113 18.527 77.2687 18.7011C77.726 18.8742 78.1168 19.1143 78.427 19.433C78.7372 19.7528 78.9788 20.1394 79.1408 20.5791C79.3029 21.0189 79.3834 21.5118 79.3834 22.0578V27.3349H78.0104L78.0243 22.045Z" fill="#00222D"/>
<path d="M96.2269 18.6064V23.8825C96.2269 24.4285 96.1454 24.9224 95.9843 25.3622C95.8223 25.8019 95.5807 26.1885 95.2705 26.5083C94.9603 26.828 94.5705 27.0681 94.1122 27.2412C93.6548 27.4143 93.1289 27.495 92.5373 27.495C91.9457 27.495 91.4198 27.4143 90.9614 27.2412C90.5041 27.0681 90.1123 26.828 89.7902 26.522C89.4671 26.2151 89.2245 25.8422 89.0624 25.3897C88.9014 24.9372 88.8198 24.4433 88.8198 23.8973V18.6202H90.1939V23.8973C90.1939 24.6302 90.3828 25.2028 90.7725 25.616C91.1633 26.0292 91.7419 26.2427 92.5234 26.2427C93.3049 26.2427 93.8835 26.0292 94.2742 25.616C94.665 25.2028 94.8529 24.6302 94.8529 23.8973V18.6202L96.2269 18.6074V18.6064Z" fill="#00222D"/>
<path d="M54.4945 20.3388C54.3732 19.9925 54.1843 19.6856 53.9288 19.4327C53.6723 19.1799 53.3362 18.9802 52.9316 18.8336C52.5279 18.687 52.0427 18.6201 51.4909 18.6201H47.8013V27.3355H49.1743V19.8735H51.5178C52.1779 19.8735 52.6353 20.0201 52.9047 20.326C53.1742 20.633 53.3084 21.0186 53.3084 21.4849C53.3084 21.9512 53.1732 22.3379 52.9047 22.6438C52.6353 22.9508 52.1779 23.0964 51.5178 23.0964V23.1102H49.9816V24.3625H51.4909C52.0427 24.3625 52.5279 24.2818 52.9316 24.1353C53.3352 23.9887 53.6723 23.789 53.9288 23.5361C54.1843 23.2823 54.3732 22.9764 54.4945 22.6301C54.6158 22.2838 54.6834 21.8971 54.6834 21.4839C54.6834 21.0707 54.6158 20.6841 54.4945 20.3378V20.3388Z" fill="#00222D"/>
<path d="M60.7881 24.1238V24.0972C61.4751 23.924 61.9732 23.5905 62.2964 23.1114C62.6195 22.6313 62.7816 22.0588 62.7816 21.4055C62.7816 21.0061 62.7269 20.6323 62.6066 20.286C62.4853 19.9397 62.2964 19.6465 62.0408 19.3937C61.7843 19.1399 61.4622 18.9411 61.0705 18.7936C60.6797 18.647 60.2085 18.5801 59.6706 18.5801H55.8865V27.2955H57.2595V19.8334H59.6835C59.9937 19.8334 60.2631 19.8738 60.4779 19.9535C60.6936 20.0341 60.8686 20.1404 61.0029 20.2732C61.1381 20.407 61.2325 20.5664 61.2862 20.7523C61.3399 20.9392 61.3677 21.1389 61.3677 21.3652C61.3677 21.5915 61.3399 21.7912 61.2862 21.9781C61.2325 22.165 61.1381 22.3244 61.0029 22.4572C60.8686 22.591 60.6936 22.6973 60.4779 22.7769C60.2631 22.8566 59.9937 22.897 59.6706 22.897L59.6835 22.9235H58.0669V24.1759H59.3614L61.4622 27.3339H63.1047L60.7881 24.1218V24.1238Z" fill="#00222D"/>
<path d="M102.683 24.1238V24.0972C103.37 23.924 103.868 23.5905 104.192 23.1114C104.515 22.6313 104.677 22.0588 104.677 21.4055C104.677 21.0061 104.622 20.6323 104.502 20.286C104.381 19.9397 104.192 19.6465 103.936 19.3937C103.68 19.1399 103.357 18.9411 102.966 18.7936C102.575 18.647 102.104 18.5801 101.566 18.5801H97.7817V27.2955H99.1548V19.8334H101.579C101.889 19.8334 102.158 19.8738 102.373 19.9535C102.589 20.0341 102.764 20.1404 102.898 20.2732C103.033 20.407 103.128 20.5664 103.181 20.7523C103.235 20.9392 103.263 21.1389 103.263 21.3652C103.263 21.5915 103.235 21.7912 103.181 21.9781C103.128 22.165 103.033 22.3244 102.898 22.4572C102.764 22.591 102.589 22.6973 102.373 22.7769C102.158 22.8566 101.889 22.897 101.566 22.897L101.579 22.9235H99.9621V24.1759H101.257L103.357 27.3339H105L102.683 24.1218V24.1238Z" fill="#00222D"/>
<path d="M70.2662 31.7269H68.9688V31.1436H72.21V31.7269H70.9065V35.2007H70.2672V31.7269H70.2662Z" fill="#00222D"/>
<path d="M75.7283 33.4328H73.4406V35.2007H72.8013V31.1436H73.4406V32.8495H75.7283V31.1436H76.3676V35.2007H75.7283V33.4328Z" fill="#00222D"/>
<path d="M77.8503 34.6183H80.2255V35.2017H77.21V31.1445H80.2255V31.7279H77.8503V32.8445H79.8626V33.4279H77.8503V34.6193V34.6183Z" fill="#00222D"/>
<path d="M85.5328 33.4328H83.245V35.2007H82.6057V31.1436H83.245V32.8495H85.5328V31.1436H86.1721V35.2007H85.5328V33.4328Z" fill="#00222D"/>
<path d="M90.3819 31.1377V33.5942C90.3819 33.849 90.3441 34.0783 90.2695 34.2829C90.1939 34.4875 90.0816 34.6675 89.9374 34.8161C89.7933 34.9647 89.6113 35.0768 89.3985 35.1575C89.1848 35.2381 88.9402 35.2755 88.6648 35.2755C88.3894 35.2755 88.1438 35.2381 87.931 35.1575C87.7173 35.0768 87.5363 34.9656 87.3852 34.823C87.2351 34.6803 87.1227 34.5062 87.0472 34.2957C86.9726 34.0851 86.9348 33.8549 86.9348 33.6011V31.1446H87.5741V33.6011C87.5741 33.9425 87.6616 34.2091 87.8436 34.4009C88.0255 34.5938 88.2949 34.6931 88.6588 34.6931C89.0227 34.6931 89.2922 34.5938 89.4731 34.4009C89.6551 34.2091 89.7426 33.9425 89.7426 33.6011V31.1446L90.3819 31.1387V31.1377Z" fill="#00222D"/>
<path d="M93.2731 32.2676C93.2672 32.0876 93.1916 31.939 93.0534 31.821C92.9152 31.7029 92.7213 31.6478 92.4648 31.6478C92.2083 31.6478 92.0005 31.7098 91.8573 31.8337C91.7132 31.9577 91.6436 32.1131 91.6436 32.2991C91.6436 32.4604 91.7003 32.5785 91.8126 32.6523C91.9249 32.726 92.0691 32.7821 92.2391 32.8195C92.4081 32.8569 92.5961 32.8943 92.7969 32.9248C92.9977 32.9553 93.1857 33.0054 93.3547 33.0802C93.5237 33.154 93.6679 33.2661 93.7812 33.4147C93.8936 33.5633 93.9502 33.7748 93.9502 34.0414C93.9502 34.2332 93.9124 34.4073 93.8369 34.5628C93.7623 34.7182 93.6619 34.8481 93.5297 34.9602C93.3984 35.0714 93.2413 35.159 93.0524 35.215C92.8645 35.2711 92.6577 35.3016 92.426 35.3016C92.1944 35.3016 91.9936 35.2701 91.8116 35.215C91.6297 35.159 91.4726 35.0783 91.3413 34.973C91.2101 34.8678 91.1087 34.7369 91.0341 34.5825C90.9585 34.427 90.9218 34.2539 90.9148 34.0611H91.5481C91.5541 34.2598 91.6297 34.4211 91.7798 34.5382C91.9299 34.6562 92.1437 34.7182 92.4251 34.7182C92.7064 34.7182 92.9331 34.6562 93.0832 34.5382C93.2334 34.4201 93.3089 34.2588 93.3089 34.0611C93.3089 33.943 93.2771 33.8495 93.2085 33.7817C93.1399 33.7138 93.0514 33.6577 92.946 33.6144C92.8397 33.5711 92.7134 33.5396 92.5762 33.515C92.438 33.4905 92.2938 33.4659 92.1496 33.4403C92.0055 33.4157 91.8613 33.3783 91.7231 33.335C91.5849 33.2917 91.4596 33.2297 91.3533 33.1491C91.2469 33.0684 91.1584 32.9631 91.0898 32.8323C91.0212 32.7024 90.9894 32.5342 90.9894 32.3296C90.9894 32.1436 91.0202 31.9754 91.0898 31.821C91.1594 31.6665 91.2528 31.5357 91.3781 31.4235C91.5034 31.3123 91.6545 31.2248 91.8295 31.1628C92.0055 31.1008 92.1994 31.0693 92.4131 31.0693C92.6269 31.0693 92.8078 31.1008 92.9838 31.1559C93.1598 31.212 93.3099 31.2927 93.4352 31.3979C93.5605 31.5032 93.6549 31.634 93.7235 31.7826C93.7921 31.9311 93.8299 32.0994 93.8359 32.2784H93.2284L93.2721 32.2656L93.2731 32.2676Z" fill="#00222D"/>
<path d="M95.4762 31.7269H94.1787V31.1436H97.4199V31.7269H96.1155V35.2007H95.4762V31.7269Z" fill="#00222D"/>
<path d="M98.0107 31.1436H98.65V34.6173H100.951V35.2007H98.0107V31.1436Z" fill="#00222D"/>
<path d="M102.175 34.6183H104.551V35.2017H101.535V31.1445H104.551V31.7279H102.175V32.8445H104.188V33.4279H102.175V34.6193V34.6183Z" fill="#00222D"/>
<path d="M51.2454 30.8457C51.7743 30.8457 52.2048 31.2717 52.2048 31.7951V33.1763C52.2048 33.6997 51.7743 34.1257 51.2454 34.1257H50.2551C49.7262 34.1257 49.2957 33.6997 49.2957 33.1763V31.7951C49.2957 31.2717 49.7262 30.8457 50.2551 30.8457H51.2454ZM51.2454 29.5137H50.2551C48.9825 29.5137 47.9504 30.5348 47.9504 31.7941V33.1754C47.9504 34.4346 48.9825 35.4558 50.2551 35.4558H51.2454C52.518 35.4558 53.55 34.4346 53.55 33.1754V31.7941C53.55 30.5348 52.518 29.5137 51.2454 29.5137Z" fill="#00222D"/>
<path d="M61.2534 29.7217V33.1443C61.2534 33.5083 61.2036 33.8221 61.1032 34.0868C61.0028 34.3514 60.8606 34.5659 60.6856 34.74C60.5097 34.9141 60.3009 35.0371 60.0593 35.1207C59.8167 35.2034 59.5582 35.2447 59.2818 35.2447C58.9477 35.2447 58.6554 35.1867 58.4048 35.0627C58.1543 34.9387 57.9455 34.7567 57.7864 34.5167H57.7695C57.4434 35.0047 56.9423 35.2526 56.2652 35.2526C55.9898 35.2526 55.7303 35.2112 55.4967 35.1286C55.263 35.046 55.0542 34.922 54.8783 34.7489C54.7023 34.5747 54.5611 34.3603 54.4607 34.0956C54.3603 33.831 54.3105 33.5172 54.3105 33.1532V29.7305H55.6637V33.1532C55.6637 33.467 55.7303 33.6903 55.8636 33.8143C55.9968 33.9382 56.1728 34.0041 56.3816 34.0041C56.5903 34.0041 56.7494 33.9382 56.8916 33.8143C57.0338 33.6903 57.1004 33.467 57.1004 33.1532V29.7305H58.4536V33.1532C58.4536 33.467 58.5202 33.6903 58.6624 33.8143C58.8045 33.9382 58.9716 34.0041 59.1714 34.0041C59.3712 34.0041 59.5472 33.9382 59.6815 33.8143C59.8147 33.6903 59.8813 33.467 59.8813 33.1532V29.7305L61.2514 29.7227L61.2534 29.7217Z" fill="#00222D"/>
<path d="M65.4351 31.8956C65.4351 31.5651 65.3516 31.3083 65.1925 31.1263C65.0334 30.9443 64.7829 30.8538 64.4488 30.8538C64.1148 30.8538 63.8642 30.9443 63.7051 31.1263C63.5461 31.3083 63.4625 31.5641 63.4625 31.8956V35.1362H62.1094V31.8956C62.1094 31.5483 62.1601 31.2335 62.2595 30.9531C62.3599 30.6718 62.5101 30.4327 62.7109 30.234C62.9117 30.0353 63.1533 29.8867 63.4456 29.7795C63.7379 29.6722 64.072 29.6221 64.4488 29.6221C64.8256 29.6221 65.1587 29.6713 65.451 29.7795C65.7433 29.8867 65.9859 30.0353 66.1868 30.234C66.3866 30.4327 66.5377 30.6718 66.6382 30.9531C66.7386 31.2345 66.7883 31.5483 66.7883 31.8956V35.1362H65.4351V31.8956Z" fill="#00222D"/>
<path d="M47.9495 36.6953H66.7884V37.2817L47.9495 39.2719V36.6953Z" fill="#00222D"/>
<path d="M23.2045 7.28893C19.14 7.28893 12.5363 7.79165 10.9276 16.6723H0.13208C0.13208 16.6723 0.384618 10.137 4.81199 5.94802C9.08624 1.90561 15.2883 0 23.2045 0C31.1207 0 37.3228 1.90561 41.597 5.94802C46.0254 10.136 46.2769 16.6714 46.2769 16.6714H35.4814C33.8727 7.79066 27.269 7.28794 23.2045 7.28794V7.28893Z" fill="#00222D"/>
<path d="M23.2045 38.5289C27.269 38.5289 33.8727 38.0262 35.4814 29.1455H46.2769C46.2769 29.1455 46.0254 35.6808 41.597 39.8689C37.3228 43.9113 31.1217 45.8169 23.2045 45.8169C15.2873 45.8169 9.08624 43.9113 4.81199 39.8689C0.384618 35.6818 0.13208 29.1455 0.13208 29.1455H10.9276C12.5363 38.0262 19.14 38.5289 23.2045 38.5289Z" fill="#00222D"/>
</svg>
