<svg width="105" height="47" viewBox="0 0 105 47" fill="none" xmlns="http://www.w3.org/2000/svg">
<path d="M5.31224 20.9113C6.16531 20.9113 6.85829 21.598 6.85829 22.4411V24.6674C6.85829 25.5115 6.16431 26.1972 5.31224 26.1972H3.71549C2.86243 26.1972 2.16944 25.5105 2.16944 24.6674V22.4411C2.16944 21.597 2.86342 20.9113 3.71549 20.9113H5.31224ZM5.31224 18.7646H3.71549C1.66337 18.7646 0 20.4105 0 22.4411V24.6674C0 26.698 1.66337 28.3438 3.71549 28.3438H5.31224C7.36436 28.3438 9.02773 26.698 9.02773 24.6674V22.4411C9.02773 20.4105 7.36436 18.7646 5.31224 18.7646Z" fill="white"/>
<path d="M21.4449 19.0974V24.6135C21.4449 25.1999 21.3644 25.7065 21.2024 26.1335C21.0403 26.5595 20.8116 26.9058 20.5292 27.1862C20.2459 27.4665 19.9098 27.6653 19.5191 27.7991C19.1284 27.9319 18.7108 27.9988 18.2664 27.9988C17.7275 27.9988 17.2562 27.9053 16.8525 27.7056C16.4489 27.5059 16.1118 27.2127 15.8563 26.8261H15.8295C15.3045 27.6121 14.4962 28.0116 13.4045 28.0116C12.9601 28.0116 12.5425 27.9447 12.1657 27.8119C11.7889 27.679 11.4518 27.4784 11.1684 27.199C10.8851 26.9186 10.6564 26.5723 10.4953 26.1463C10.3333 25.7203 10.2527 25.2137 10.2527 24.6273V19.1102H12.4341V24.6273C12.4341 25.134 12.5415 25.494 12.7572 25.6937C12.973 25.8935 13.2554 26.0007 13.5924 26.0007C13.9295 26.0007 14.185 25.8935 14.4146 25.6937C14.6433 25.494 14.7517 25.134 14.7517 24.6273V19.1102H16.9331V24.6273C16.9331 25.134 17.0404 25.494 17.2701 25.6937C17.4988 25.8935 17.7682 26.0007 18.0914 26.0007C18.4145 26.0007 18.6969 25.8935 18.9136 25.6937C19.1284 25.494 19.2367 25.134 19.2367 24.6273V19.1102L21.4449 19.0974Z" fill="white"/>
<path d="M28.1858 22.6026C28.1858 22.0694 28.0516 21.6562 27.7951 21.363C27.5386 21.0699 27.1349 20.9233 26.597 20.9233C26.0591 20.9233 25.6545 21.0699 25.399 21.363C25.1424 21.6562 25.0082 22.0694 25.0082 22.6026V27.8256H22.8268V22.6026C22.8268 22.0428 22.9084 21.5362 23.0694 21.0827C23.2315 20.6301 23.4731 20.2435 23.7972 19.9237C24.1213 19.604 24.5111 19.364 24.9824 19.1918C25.4536 19.0187 25.9925 18.938 26.599 18.938C27.2055 18.938 27.7434 19.0177 28.2147 19.1918C28.6859 19.365 29.0767 19.605 29.3998 19.9237C29.7229 20.2435 29.9655 20.6301 30.1266 21.0827C30.2876 21.5352 30.3692 22.0428 30.3692 22.6026V27.8256H28.1878V22.6026H28.1858Z" fill="white"/>
<path d="M33.844 19.1108H38.1461V21.1099H34.193C33.9891 21.1099 33.8231 21.2732 33.8231 21.4759V22.5364H37.3646V24.2689H33.8231V25.4622C33.8231 25.6639 33.9881 25.8282 34.193 25.8282H38.1461V27.8272H33.844C32.628 27.8272 31.6417 26.8513 31.6417 25.6481V21.2909C31.6417 20.0877 32.628 19.1118 33.844 19.1118V19.1108Z" fill="white"/>
<path d="M42.5268 25.0677H41.5972V27.7997H39.4158V19.0842H42.9842C43.5628 19.0842 44.0619 19.1639 44.4795 19.3115C44.8971 19.4581 45.2471 19.6716 45.5304 19.9372C45.8128 20.2038 46.0146 20.5235 46.1498 20.8836C46.285 21.2437 46.3517 21.6431 46.3517 22.0828C46.3517 22.6957 46.2164 23.2417 45.948 23.7218C45.6786 24.2009 45.261 24.561 44.6953 24.7883V24.8148L46.6619 27.8262H44.0758L42.5268 25.0677ZM43.011 23.0558C43.4554 23.0558 43.7517 22.9623 43.9138 22.7754C44.0758 22.5885 44.1564 22.3494 44.1564 22.0691C44.1564 21.7887 44.0758 21.5496 43.9138 21.3627C43.7517 21.1758 43.4564 21.0823 43.011 21.0823H41.5972V23.0676H43.011V23.0548V23.0558Z" fill="white"/>
<path d="M66.2813 26.5732H70.6122V27.8255H66.153C65.0385 27.8255 64.1347 26.9313 64.1347 25.8284V21.1072C64.1347 20.0044 65.0385 19.1101 66.153 19.1101H70.6122V20.3625H66.2813C65.8548 20.3625 65.5088 20.7048 65.5088 21.1269V22.761H69.8318V24.0133H65.5088V25.8068C65.5088 26.2288 65.8548 26.5712 66.2813 26.5712V26.5732Z" fill="white"/>
<path d="M83.1376 26.5732H87.4685V27.8255H83.0093C81.8948 27.8255 80.991 26.9313 80.991 25.8284V21.1072C80.991 20.0044 81.8948 19.1101 83.0093 19.1101H87.4685V20.3625H83.1376C82.7111 20.3625 82.3651 20.7048 82.3651 21.1269V22.761H86.688V24.0133H82.3651V25.8068C82.3651 26.2288 82.7111 26.5712 83.1376 26.5712V26.5732Z" fill="white"/>
<path d="M78.0243 22.5357C78.0243 21.8028 77.8225 21.2302 77.4318 20.8161C77.041 20.4029 76.4485 20.1904 75.667 20.1904C74.8855 20.1904 74.3208 20.4038 73.929 20.8161C73.5383 21.2292 73.3365 21.8028 73.3365 22.5357V27.8118H71.9624V22.5357C71.9624 21.9897 72.044 21.4959 72.205 21.0561C72.3671 20.6163 72.6087 20.2435 72.9328 19.9237C73.2559 19.604 73.6467 19.364 74.104 19.1918C74.5614 19.0187 75.0873 18.938 75.6799 18.938C76.2725 18.938 76.8114 19.0177 77.2687 19.1918C77.7261 19.365 78.1168 19.605 78.427 19.9237C78.7372 20.2435 78.9788 20.6301 79.1409 21.0699C79.3029 21.5096 79.3835 22.0025 79.3835 22.5485V27.8256H78.0104L78.0243 22.5357Z" fill="white"/>
<path d="M96.227 19.0974V24.3735C96.227 24.9195 96.1455 25.4134 95.9844 25.8531C95.8223 26.2929 95.5807 26.6795 95.2705 26.9992C94.9603 27.319 94.5706 27.559 94.1122 27.7322C93.6549 27.9053 93.1289 27.986 92.5374 27.986C91.9458 27.986 91.4198 27.9053 90.9615 27.7322C90.5041 27.559 90.1124 27.319 89.7903 27.013C89.4671 26.7061 89.2245 26.3332 89.0625 25.8807C88.9014 25.4281 88.8199 24.9343 88.8199 24.3883V19.1112H90.1939V24.3883C90.1939 25.1212 90.3828 25.6937 90.7726 26.1069C91.1633 26.5201 91.742 26.7336 92.5234 26.7336C93.3049 26.7336 93.8836 26.5201 94.2743 26.1069C94.665 25.6937 94.853 25.1212 94.853 24.3883V19.1112L96.227 19.0984V19.0974Z" fill="white"/>
<path d="M54.4944 20.8295C54.3731 20.4832 54.1842 20.1763 53.9287 19.9235C53.6722 19.6706 53.3361 19.4709 52.9315 19.3243C52.5278 19.1777 52.0426 19.1108 51.4908 19.1108H47.8012V27.8263H49.1742V20.3642H51.5177C52.1779 20.3642 52.6352 20.5108 52.9046 20.8167C53.1741 21.1237 53.3083 21.5093 53.3083 21.9756C53.3083 22.442 53.1731 22.8286 52.9046 23.1346C52.6352 23.4415 52.1779 23.5871 51.5177 23.5871V23.6009H49.9816V24.8532H51.4908C52.0426 24.8532 52.5278 24.7726 52.9315 24.626C53.3352 24.4794 53.6722 24.2797 53.9287 24.0269C54.1842 23.773 54.3731 23.4671 54.4944 23.1208C54.6157 22.7745 54.6833 22.3879 54.6833 21.9747C54.6833 21.5615 54.6157 21.1748 54.4944 20.8285V20.8295Z" fill="white"/>
<path d="M60.788 24.6142V24.5877C61.475 24.4145 61.9732 24.081 62.2963 23.6019C62.6194 23.1218 62.7815 22.5493 62.7815 21.896C62.7815 21.4966 62.7268 21.1227 62.6065 20.7765C62.4852 20.4302 62.2963 20.137 62.0408 19.8842C61.7843 19.6303 61.4621 19.4316 61.0704 19.284C60.6796 19.1375 60.2084 19.0706 59.6705 19.0706H55.8864V27.786H57.2594V20.3239H59.6834C59.9936 20.3239 60.2631 20.3642 60.4778 20.4439C60.6936 20.5246 60.8686 20.6309 61.0028 20.7637C61.138 20.8975 61.2324 21.0568 61.2861 21.2428C61.3398 21.4297 61.3677 21.6294 61.3677 21.8557C61.3677 22.0819 61.3398 22.2817 61.2861 22.4686C61.2324 22.6555 61.138 22.8149 61.0028 22.9477C60.8686 23.0815 60.6936 23.1877 60.4778 23.2674C60.2631 23.3471 59.9936 23.3874 59.6705 23.3874L59.6834 23.414H58.0668V24.6664H59.3613L61.4621 27.8244H63.1046L60.788 24.6123V24.6142Z" fill="white"/>
<path d="M102.683 24.6142V24.5877C103.37 24.4145 103.869 24.081 104.192 23.6019C104.515 23.1218 104.677 22.5493 104.677 21.896C104.677 21.4966 104.622 21.1227 104.502 20.7765C104.381 20.4302 104.192 20.137 103.936 19.8842C103.68 19.6303 103.358 19.4316 102.966 19.284C102.575 19.1375 102.104 19.0706 101.566 19.0706H97.7818V27.786H99.1548V20.3239H101.579C101.889 20.3239 102.158 20.3642 102.373 20.4439C102.589 20.5246 102.764 20.6309 102.898 20.7637C103.033 20.8975 103.128 21.0568 103.182 21.2428C103.235 21.4297 103.263 21.6294 103.263 21.8557C103.263 22.0819 103.235 22.2817 103.182 22.4686C103.128 22.6555 103.033 22.8149 102.898 22.9477C102.764 23.0815 102.589 23.1877 102.373 23.2674C102.158 23.3471 101.889 23.3874 101.566 23.3874L101.579 23.414H99.9622V24.6664H101.257L103.358 27.8244H105L102.683 24.6123V24.6142Z" fill="white"/>
<path d="M70.2663 32.2179H68.9688V31.6345H72.21V32.2179H70.9065V35.6917H70.2672V32.2179H70.2663Z" fill="white"/>
<path d="M75.7284 33.9238H73.4407V35.6917H72.8014V31.6345H73.4407V33.3404H75.7284V31.6345H76.3677V35.6917H75.7284V33.9238Z" fill="white"/>
<path d="M77.8502 35.1093H80.2254V35.6927H77.2099V31.6355H80.2254V32.2189H77.8502V33.3355H79.8625V33.9189H77.8502V35.1103V35.1093Z" fill="white"/>
<path d="M85.5328 33.9238H83.2451V35.6917H82.6058V31.6345H83.2451V33.3404H85.5328V31.6345H86.1721V35.6917H85.5328V33.9238Z" fill="white"/>
<path d="M90.3818 31.6287V34.0852C90.3818 34.34 90.344 34.5692 90.2695 34.7739C90.1939 34.9785 90.0816 35.1585 89.9374 35.3071C89.7932 35.4556 89.6113 35.5678 89.3985 35.6484C89.1848 35.7291 88.9402 35.7665 88.6648 35.7665C88.3894 35.7665 88.1438 35.7291 87.931 35.6484C87.7173 35.5678 87.5363 35.4566 87.3852 35.314C87.235 35.1713 87.1227 34.9972 87.0471 34.7866C86.9726 34.5761 86.9348 34.3459 86.9348 34.0921V31.6355H87.5741V34.0921C87.5741 34.4335 87.6616 34.7001 87.8435 34.8919C88.0255 35.0847 88.2949 35.1841 88.6588 35.1841C89.0227 35.1841 89.2921 35.0847 89.4731 34.8919C89.655 34.7001 89.7425 34.4335 89.7425 34.0921V31.6355L90.3818 31.6296V31.6287Z" fill="white"/>
<path d="M93.2731 32.7583C93.2671 32.5783 93.1915 32.4297 93.0533 32.3117C92.9151 32.1936 92.7212 32.1385 92.4647 32.1385C92.2082 32.1385 92.0004 32.2005 91.8573 32.3245C91.7131 32.4484 91.6435 32.6039 91.6435 32.7898C91.6435 32.9511 91.7002 33.0692 91.8125 33.143C91.9249 33.2168 92.069 33.2728 92.239 33.3102C92.4081 33.3476 92.596 33.385 92.7968 33.4155C92.9976 33.446 93.1856 33.4962 93.3546 33.5709C93.5236 33.6447 93.6678 33.7569 93.7811 33.9054C93.8935 34.054 93.9501 34.2655 93.9501 34.5321C93.9501 34.7239 93.9123 34.8981 93.8368 35.0535C93.7622 35.209 93.6618 35.3388 93.5296 35.451C93.3983 35.5621 93.2412 35.6497 93.0523 35.7058C92.8644 35.7618 92.6576 35.7923 92.426 35.7923C92.1943 35.7923 91.9935 35.7609 91.8115 35.7058C91.6296 35.6497 91.4725 35.569 91.3412 35.4638C91.21 35.3585 91.1086 35.2276 91.034 35.0732C90.9585 34.9177 90.9217 34.7446 90.9147 34.5518H91.548C91.554 34.7505 91.6296 34.9118 91.7797 35.0289C91.9298 35.147 92.1436 35.2089 92.425 35.2089C92.7063 35.2089 92.933 35.147 93.0831 35.0289C93.2333 34.9109 93.3088 34.7495 93.3088 34.5518C93.3088 34.4337 93.277 34.3403 93.2084 34.2724C93.1398 34.2045 93.0513 34.1484 92.9459 34.1051C92.8396 34.0618 92.7133 34.0304 92.5761 34.0058C92.4379 33.9812 92.2937 33.9566 92.1496 33.931C92.0054 33.9064 91.8612 33.869 91.723 33.8257C91.5848 33.7824 91.4596 33.7205 91.3532 33.6398C91.2468 33.5591 91.1583 33.4539 91.0897 33.323C91.0211 33.1932 90.9893 33.0249 90.9893 32.8203C90.9893 32.6344 91.0201 32.4661 91.0897 32.3117C91.1593 32.1572 91.2527 32.0264 91.378 31.9142C91.5033 31.8031 91.6544 31.7155 91.8294 31.6535C92.0054 31.5915 92.1993 31.5601 92.413 31.5601C92.6268 31.5601 92.8077 31.5915 92.9837 31.6466C93.1597 31.7027 93.3098 31.7834 93.4351 31.8886C93.5604 31.9939 93.6548 32.1248 93.7234 32.2733C93.792 32.4219 93.8298 32.5901 93.8358 32.7691H93.2283L93.2721 32.7564L93.2731 32.7583Z" fill="white"/>
<path d="M95.4762 32.2179H94.1787V31.6345H97.4199V32.2179H96.1155V35.6917H95.4762V32.2179Z" fill="white"/>
<path d="M98.0107 31.6345H98.6499V35.1083H100.951V35.6917H98.0107V31.6345Z" fill="white"/>
<path d="M102.175 35.1093H104.551V35.6927H101.535V31.6355H104.551V32.2189H102.175V33.3355H104.188V33.9189H102.175V35.1103V35.1093Z" fill="white"/>
<path d="M51.2453 31.3367C51.7742 31.3367 52.2047 31.7627 52.2047 32.2861V33.6673C52.2047 34.1907 51.7742 34.6167 51.2453 34.6167H50.255C49.7261 34.6167 49.2955 34.1907 49.2955 33.6673V32.2861C49.2955 31.7627 49.7261 31.3367 50.255 31.3367H51.2453ZM51.2453 30.0046H50.255C48.9824 30.0046 47.9503 31.0258 47.9503 32.2851V33.6663C47.9503 34.9256 48.9824 35.9468 50.255 35.9468H51.2453C52.5179 35.9468 53.5499 34.9256 53.5499 33.6663V32.2851C53.5499 31.0258 52.5179 30.0046 51.2453 30.0046Z" fill="white"/>
<path d="M61.2534 30.2122V33.6348C61.2534 33.9988 61.2037 34.3126 61.1032 34.5773C61.0028 34.8419 60.8606 35.0564 60.6857 35.2305C60.5097 35.4046 60.3009 35.5276 60.0593 35.6112C59.8167 35.6939 59.5582 35.7352 59.2818 35.7352C58.9477 35.7352 58.6554 35.6771 58.4049 35.5532C58.1543 35.4292 57.9455 35.2472 57.7864 35.0072H57.7695C57.4434 35.4951 56.9423 35.743 56.2652 35.743C55.9898 35.743 55.7303 35.7017 55.4967 35.6191C55.263 35.5365 55.0543 35.4125 54.8783 35.2393C54.7023 35.0652 54.5611 34.8507 54.4607 34.5861C54.3603 34.3215 54.3106 34.0076 54.3106 33.6436V30.221H55.6637V33.6436C55.6637 33.9575 55.7303 34.1808 55.8636 34.3047C55.9968 34.4287 56.1728 34.4946 56.3816 34.4946C56.5904 34.4946 56.7494 34.4287 56.8916 34.3047C57.0338 34.1808 57.1004 33.9575 57.1004 33.6436V30.221H58.4536V33.6436C58.4536 33.9575 58.5202 34.1808 58.6624 34.3047C58.8045 34.4287 58.9716 34.4946 59.1714 34.4946C59.3713 34.4946 59.5472 34.4287 59.6815 34.3047C59.8147 34.1808 59.8813 33.9575 59.8813 33.6436V30.221L61.2514 30.2131L61.2534 30.2122Z" fill="white"/>
<path d="M65.4351 32.3866C65.4351 32.056 65.3516 31.7993 65.1925 31.6173C65.0334 31.4353 64.7829 31.3447 64.4488 31.3447C64.1147 31.3447 63.8642 31.4353 63.7051 31.6173C63.546 31.7993 63.4625 32.055 63.4625 32.3866V35.6272H62.1094V32.3866C62.1094 32.0393 62.1601 31.7245 62.2595 31.4441C62.3599 31.1627 62.51 30.9237 62.7109 30.725C62.9117 30.5262 63.1533 30.3777 63.4456 30.2704C63.7379 30.1632 64.072 30.113 64.4488 30.113C64.8256 30.113 65.1587 30.1622 65.451 30.2704C65.7433 30.3777 65.9859 30.5262 66.1868 30.725C66.3866 30.9237 66.5377 31.1627 66.6381 31.4441C66.7386 31.7255 66.7883 32.0393 66.7883 32.3866V35.6272H65.4351V32.3866Z" fill="white"/>
<path d="M47.9494 37.186H66.7883V37.7724L47.9494 39.7626V37.186Z" fill="white"/>
<path d="M23.2046 7.77965C19.1401 7.77965 12.5363 8.28237 10.9276 17.1631H0.132133C0.132133 17.1631 0.384672 10.6277 4.81204 6.43874C9.08629 2.39633 15.2884 0.490723 23.2046 0.490723C31.1207 0.490723 37.3228 2.39633 41.5971 6.43874C46.0254 10.6267 46.277 17.1621 46.277 17.1621H35.4815C33.8728 8.28138 27.269 7.77867 23.2046 7.77867V7.77965Z" fill="white"/>
<path d="M23.2046 39.0199C27.269 39.0199 33.8728 38.5172 35.4815 29.6365H46.277C46.277 29.6365 46.0254 36.1718 41.5971 40.3598C37.3228 44.4022 31.1217 46.3078 23.2046 46.3078C15.2874 46.3078 9.08629 44.4022 4.81204 40.3598C0.384672 36.1728 0.132133 29.6365 0.132133 29.6365H10.9276C12.5363 38.5172 19.1401 39.0199 23.2046 39.0199Z" fill="white"/>
</svg>
