<svg width="111" height="58" viewBox="0 0 111 58" fill="none" xmlns="http://www.w3.org/2000/svg">
<path d="M19.2475 7.69344C22.3374 7.69344 24.8522 10.114 24.8522 13.0881V20.9369C24.8522 23.911 22.3374 26.3316 19.2475 26.3316H13.4628C10.373 26.3316 7.85815 23.911 7.85815 20.9369V13.0881C7.85815 10.114 10.373 7.69344 13.4628 7.69344H19.2475ZM19.2475 0.124146H13.4628C6.02864 0.124146 0 5.92689 0 13.0825V20.9313C0 28.0869 6.02864 33.8897 13.4628 33.8897H19.2475C26.6817 33.8897 32.7103 28.0869 32.7103 20.9313V13.0825C32.7103 5.92689 26.6817 0.124146 19.2475 0.124146Z" fill="#B0DA00"/>
<path d="M78.0828 0.124268V21.019C78.0828 23.2412 77.7957 25.1571 77.2157 26.7727C76.6358 28.3883 75.8147 29.6976 74.8041 30.7607C73.7877 31.8237 72.5819 32.5745 71.1866 33.085C69.7856 33.5895 68.2926 33.8417 66.6963 33.8417C64.767 33.8417 63.0789 33.4874 61.6319 32.7306C60.1849 31.9739 58.9791 30.8628 58.0604 29.3973H57.9627C56.0793 32.3763 53.1854 33.8898 49.275 33.8898C47.6845 33.8898 46.1858 33.6375 44.8365 33.133C43.4871 32.6285 42.2813 31.8718 41.2649 30.8147C40.2486 29.7517 39.4332 28.4424 38.8533 26.8268C38.2733 25.2112 37.9862 23.2953 37.9862 21.0731V0.178337H45.8011V21.0731C45.8011 22.989 46.1858 24.3523 46.9553 25.1091C47.7247 25.8658 48.7411 26.2682 49.9469 26.2682C51.1527 26.2682 52.0714 25.8658 52.8925 25.1091C53.7136 24.3523 54.0984 22.989 54.0984 21.0731V0.178337H61.9132V21.0731C61.9132 22.989 62.298 24.3523 63.1191 25.1091C63.9402 25.8658 64.9048 26.2682 66.059 26.2682C67.2131 26.2682 68.2295 25.8658 69.0047 25.1091C69.7741 24.3523 70.1588 22.989 70.1588 21.0731V0.178337L78.0713 0.130279L78.0828 0.124268Z" fill="#B0DA00"/>
<path d="M103.164 13.6111C103.164 11.6502 102.693 10.127 101.796 9.0474C100.899 7.96775 99.4868 7.43084 97.6034 7.43084C95.7199 7.43084 94.3074 7.96775 93.4105 9.0474C92.5136 10.127 92.0428 11.6444 92.0428 13.6111V32.8346H84.4137V13.6111C84.4137 11.551 84.6996 9.68351 85.2602 8.02027C85.8263 6.3512 86.6727 4.93307 87.805 3.75421C88.9373 2.57536 90.2995 1.69413 91.9475 1.05802C93.5955 0.421903 95.4789 0.124268 97.6034 0.124268C99.7278 0.124268 101.606 0.416067 103.254 1.05802C104.902 1.69413 106.269 2.57536 107.402 3.75421C108.528 4.93307 109.38 6.3512 109.947 8.02027C110.513 9.68934 110.793 11.551 110.793 13.6111V32.8346H103.164V13.6111Z" fill="#B0DA00"/>
<path d="M0 42.3308H110.793V45.6925L0 57.1032V42.3308Z" fill="#B0DA00"/>
</svg>
