<svg width="43" height="43" viewBox="0 0 43 43" fill="none" xmlns="http://www.w3.org/2000/svg">
<path fill-rule="evenodd" clip-rule="evenodd" d="M13.1909 29.02C12.8266 28.6557 12.8267 28.0652 13.1909 27.7009L27.7008 13.1911C28.0651 12.8268 28.6556 12.8268 29.0199 13.1911C29.3841 13.5553 29.3841 14.1459 29.0199 14.5101L14.51 29.02C14.1457 29.3843 13.5552 29.3843 13.1909 29.02Z" fill="#00222D"/>
<path fill-rule="evenodd" clip-rule="evenodd" d="M15.5559 13.8505C15.5559 13.3354 15.9735 12.9177 16.4886 12.9178L28.3603 12.9178C28.8754 12.9178 29.2931 13.3354 29.2931 13.8505L29.2931 25.7222C29.2931 26.2373 28.8754 26.6549 28.3603 26.6549C27.8452 26.6549 27.4276 26.2373 27.4276 25.7222L27.4276 14.7832L16.4886 14.7832C15.9735 14.7832 15.5559 14.3656 15.5559 13.8505Z" fill="#00222D"/>
</svg>
