<svg width="64" height="86" viewBox="0 0 64 86" fill="none" xmlns="http://www.w3.org/2000/svg">
<path d="M42.1279 43.7935L42.128 43.7937C42.9096 46.1381 44.2266 48.2681 45.9745 50.0151C47.7224 51.7621 49.8532 53.0779 52.198 53.8583L62.522 57.2979C63.8259 57.7325 63.826 59.5727 62.5222 60.0074C62.5221 60.0074 62.5221 60.0075 62.522 60.0075L52.1926 63.4471L52.1924 63.4471C49.8481 64.2288 47.718 65.5458 45.971 67.2937C44.2241 69.0416 42.9083 71.1723 42.1279 73.5171C42.1279 73.5171 42.1279 73.5172 42.1279 73.5172L38.6883 83.8414L38.6876 83.8435C38.594 84.1287 38.4127 84.3772 38.1695 84.5533C37.9263 84.7294 37.6338 84.8242 37.3335 84.8242C37.0333 84.8242 36.7407 84.7294 36.4976 84.5533C36.2544 84.3772 36.0731 84.1288 35.9795 83.8435L35.9788 83.8414L32.5392 73.5118L32.5391 73.5117C31.758 71.1679 30.4419 69.0382 28.6949 67.2913C26.948 65.5444 24.8183 64.2282 22.4746 63.4471L22.4744 63.4471L12.1449 60.0074L12.1428 60.0067C11.8576 59.9131 11.6091 59.7318 11.433 59.4886C11.2569 59.2455 11.1621 58.9529 11.1621 58.6527C11.1621 58.3524 11.2569 58.0598 11.433 57.8167C11.6091 57.5735 11.8576 57.3922 12.1428 57.2986L12.1449 57.2979L22.4744 53.8583L22.4746 53.8582C24.8183 53.0771 26.948 51.761 28.6949 50.014C30.4419 48.2671 31.758 46.1374 32.5391 43.7936L32.5392 43.7935L35.9787 33.464C35.9787 33.464 35.9788 33.4639 35.9788 33.4639C36.4135 32.1601 38.2536 32.1601 38.6883 33.4639C38.6883 33.4639 38.6883 33.464 38.6883 33.464L42.1279 43.7935ZM15.3783 6.27204L15.3786 6.27122C15.422 6.14007 15.5057 6.02593 15.6177 5.94504C15.7297 5.86414 15.8643 5.8206 16.0025 5.8206C16.1406 5.8206 16.2753 5.86414 16.3873 5.94504C16.4993 6.02593 16.5829 6.14006 16.6264 6.27123L16.6266 6.27204L18.6904 12.4687L18.6906 12.4691C19.6629 15.3806 21.945 17.6627 24.8565 18.6351L24.8569 18.6352L31.0535 20.699L31.0543 20.6993C31.1855 20.7427 31.2996 20.8263 31.3805 20.9384C31.4614 21.0504 31.505 21.185 31.505 21.3232C31.505 21.4613 31.4614 21.596 31.3805 21.708C31.2996 21.82 31.1855 21.9036 31.0543 21.9471L31.0535 21.9473L24.8569 24.0111L24.8568 24.0111C23.4207 24.4896 22.1159 25.2959 21.0455 26.3663C19.9752 27.4366 19.1689 28.7415 18.6904 30.1775L18.6904 30.1776L16.6266 36.3743L16.6264 36.3751C16.5829 36.5063 16.4993 36.6204 16.3873 36.7013C16.2753 36.7822 16.1406 36.8257 16.0025 36.8257C15.8643 36.8257 15.7297 36.7822 15.6177 36.7013C15.5057 36.6204 15.422 36.5062 15.3786 36.3751L15.3783 36.3743L13.3145 30.1776L13.3145 30.1775C12.8361 28.7415 12.0297 27.4366 10.9594 26.3663C9.8891 25.2959 8.58421 24.4896 7.14816 24.0111L7.14811 24.0111L0.951438 21.9473L0.95062 21.9471C0.819464 21.9036 0.70533 21.82 0.624435 21.708C0.543541 21.596 0.5 21.4613 0.5 21.3232C0.5 21.185 0.543541 21.0504 0.624435 20.9384C0.70533 20.8263 0.819464 20.7427 0.95062 20.6993L0.951438 20.699L7.14811 18.6352L7.14816 18.6352C8.58421 18.1567 9.8891 17.3504 10.9594 16.2801C12.0297 15.2097 12.8361 13.9049 13.3145 12.4688L13.3145 12.4687L15.3783 6.27204ZM53.0757 0.683038L53.0839 0.658336C53.1038 0.615415 53.1346 0.57824 53.1734 0.550626C53.2196 0.517696 53.275 0.5 53.3318 0.5C53.3886 0.5 53.444 0.517694 53.4902 0.550626C53.5359 0.583131 53.5705 0.628885 53.5893 0.681664C53.5895 0.682355 53.5897 0.683048 53.59 0.683742L54.9638 4.80524C55.6268 6.80002 57.1894 8.36261 59.1841 9.02562L63.3056 10.3994C63.3063 10.3997 63.307 10.3999 63.3077 10.4002C63.3605 10.4189 63.4062 10.4535 63.4387 10.4991C63.4716 10.5454 63.4893 10.6008 63.4893 10.6576C63.4893 10.7144 63.4716 10.7698 63.4387 10.816C63.4062 10.8617 63.3605 10.8962 63.3077 10.915C63.307 10.9153 63.3063 10.9155 63.3056 10.9158L59.184 12.2896C58.201 12.6166 57.3077 13.1683 56.5751 13.9009C55.8425 14.6335 55.2908 15.5268 54.9638 16.5098L53.59 20.6314C53.5897 20.6321 53.5895 20.6328 53.5893 20.6335C53.5705 20.6863 53.5359 20.732 53.4902 20.7645C53.444 20.7975 53.3886 20.8152 53.3318 20.8152C53.275 20.8152 53.2196 20.7975 53.1734 20.7645C53.1277 20.732 53.0931 20.6863 53.0744 20.6335C53.0741 20.6328 53.0739 20.6321 53.0736 20.6314L51.6998 16.5098C51.3728 15.5268 50.8211 14.6335 50.0885 13.9009C49.356 13.1684 48.4628 12.6167 47.4798 12.2897C47.4797 12.2896 47.4797 12.2896 47.4796 12.2896L43.3633 10.9158C43.3627 10.9155 43.362 10.9153 43.3613 10.915C43.3085 10.8963 43.2627 10.8617 43.2302 10.816C43.1973 10.7698 43.1796 10.7144 43.1796 10.6576C43.1796 10.6008 43.1973 10.5454 43.2302 10.4991C43.2627 10.4535 43.3085 10.4189 43.3612 10.4002C43.3619 10.3999 43.3626 10.3997 43.3633 10.3994L47.4848 9.02562C49.4796 8.36261 51.0422 6.80002 51.7052 4.80524L53.0757 0.683038Z" fill="#B0DA00" fill-opacity="0.87" stroke="black"/>
</svg>
